<svg xmlns="http://www.w3.org/2000/svg" viewBox="0 0 562.55 271.22"><defs><style>.cls-1{fill:#1d1d1b;}.cls-2{fill:#fff;}</style></defs><g id="Calque_2" data-name="Calque 2"><g id="Calque_1-2" data-name="Calque 1"><rect class="cls-1" width="562.55" height="271.22" rx="40.77"/><path class="cls-2" d="M52.84,143.67a2.43,2.43,0,0,1,2.75,2.75v81.42a2.43,2.43,0,0,1-2.75,2.75H30.72A2.43,2.43,0,0,1,28,227.84V146.42a2.43,2.43,0,0,1,2.75-2.75Z"/><path class="cls-2" d="M123.71,143.61a2.43,2.43,0,0,1,2.75,2.75v82.27c0,1.61-.53,2.41-1.57,2.41a2.81,2.81,0,0,1-.73-.11,11.71,11.71,0,0,1-3.26-1.29l-29.54-19c-1-.64-1.51-.45-1.51.56,0,3.26,0,5.93,0,8v8c0,2.17-1.13,3.26-3.37,3.26H64.8c-1.87,0-2.8-.92-2.8-2.76V145.91c0-1.75.71-2.52,2.13-2.3a8.25,8.25,0,0,1,2.92.9l28.81,19.65a3.33,3.33,0,0,0,1.68.73c.75,0,1.12-.67,1.12-2V146.36c0-1.91,1.09-2.82,3.26-2.75q6.06.12,10.89,0Z"/><path class="cls-2" d="M135.56,143.78H194.8c2.24,0,3.37.86,3.37,2.58v20.72c0,1.73-1.13,2.59-3.36,2.59H181.43c-1.61,0-2.41.89-2.41,2.69v55.48a2.44,2.44,0,0,1-2.76,2.75H154.15a2.44,2.44,0,0,1-2.76-2.75V172.36c0-1.8-.79-2.69-2.36-2.69H135.56c-2.25,0-3.37-.86-3.37-2.59V146.36C132.19,144.64,133.31,143.78,135.56,143.78Z"/><path class="cls-2" d="M200.75,143.67l59.46-.11q3.09,0,3.09,2.64v20.66c0,1.72-1,2.58-3.08,2.58H228.65q-3.19,0-3,3t3,3H257c1.94,0,2.91.8,2.91,2.41V197c0,1.57-1,2.36-2.92,2.36H228.26c-1.76,0-2.64,1.09-2.64,3.26s.85,3,2.64,3h31.95c2.06,0,3.09.82,3.09,2.47v19.65c0,1.65-1,2.47-3.09,2.47q-9.93,0-29.76.17t-29.7.17a2.43,2.43,0,0,1-2.75-2.75V146.42A2.43,2.43,0,0,1,200.75,143.67Z"/><path class="cls-2" d="M298.23,209.7a2.28,2.28,0,0,0-1.69-1.06q-1-.12-1.17,1.62v17.58a2.44,2.44,0,0,1-2.76,2.75H270.49a2.43,2.43,0,0,1-2.75-2.75V146.42c0-1.83.86-2.75,2.58-2.75l36.84-.23q11.73,0,20.1,6.29a29.23,29.23,0,0,1,11,17.86A33.92,33.92,0,0,1,336.64,187a26.81,26.81,0,0,1-13,14.77,2.13,2.13,0,0,0-1.41,1.85,3.67,3.67,0,0,0,1,2.19l14.43,22a3.35,3.35,0,0,1,.73,1.74c0,.67-.56,1-1.68,1H314.68a5.32,5.32,0,0,1-4.55-2.75Zm.79-40h-.73q-2.7,0-2.76,2.58v7.13c0,1.84.81,2.72,2.42,2.64L299,182q7.35-.39,10.16-1.34a4.91,4.91,0,0,0,3.42-5.06,4.8,4.8,0,0,0-3.42-5C307.34,170,304,169.67,299,169.67Z"/><path class="cls-2" d="M392,143.61a2.43,2.43,0,0,1,2.75,2.75v82.27c0,1.61-.53,2.41-1.57,2.41a2.81,2.81,0,0,1-.73-.11,11.71,11.71,0,0,1-3.26-1.29l-29.54-19c-1-.64-1.51-.45-1.51.56,0,3.26,0,5.93,0,8v8c0,2.17-1.13,3.26-3.37,3.26H333c-1.87,0-2.8-.92-2.8-2.76V145.91c0-1.75.71-2.52,2.13-2.3a8.25,8.25,0,0,1,2.92.9l28.81,19.65a3.33,3.33,0,0,0,1.68.73c.75,0,1.12-.67,1.12-2V146.36c0-1.91,1.09-2.82,3.26-2.75q6.06.12,10.89,0Z"/><path class="cls-2" d="M403.68,143.67l59.47-.11q3.09,0,3.09,2.64v20.66q0,2.58-3.09,2.58H431.59c-2.14,0-3.14,1-3,3s1.12,3,3,3H460c1.94,0,2.92.8,2.92,2.41V197c0,1.57-1,2.36-2.92,2.36H431.2c-1.76,0-2.64,1.09-2.64,3.26s.84,3,2.64,3h31.95c2.06,0,3.09.82,3.09,2.47v19.65c0,1.65-1,2.47-3.09,2.47q-9.94,0-29.76.17t-29.71.17a2.43,2.43,0,0,1-2.75-2.75V146.42A2.43,2.43,0,0,1,403.68,143.67Z"/><path class="cls-2" d="M474,143.78h59.24c2.25,0,3.37.86,3.37,2.58v20.72c0,1.73-1.12,2.59-3.36,2.59H519.91c-1.6,0-2.41.89-2.41,2.69v55.48a2.43,2.43,0,0,1-2.75,2.75H492.63a2.43,2.43,0,0,1-2.75-2.75V172.36c0-1.8-.79-2.69-2.36-2.69H474c-2.24,0-3.37-.86-3.37-2.59V146.36C470.67,144.64,471.8,143.78,474,143.78Z"/><path class="cls-2" d="M75,63H59.31a5.82,5.82,0,0,0-1.54-4.58,5.66,5.66,0,0,0-4.34-1.87q-6.27,0-6.46,3.22-.28,5,6.84,7.49,11.28,4,13.21,5.41,7,5,6.27,16.13-.5,8-7.31,13.67a24.21,24.21,0,0,1-16,5.68,19.44,19.44,0,0,1-15.09-6.65,20.84,20.84,0,0,1-5.42-15.93H45.18a5.8,5.8,0,0,0,1.54,4.58A5.56,5.56,0,0,0,51,92c4.18,0,6.36-1.07,6.56-3.22q.28-5-6.85-7.48-11.28-4-13.2-5.42-7-5-6.27-16.13.48-8,7.31-13.67a24.13,24.13,0,0,1,15.91-5.68,19.58,19.58,0,0,1,15.19,6.65A20.87,20.87,0,0,1,75,63Z"/><path class="cls-2" d="M125.34,63l-3,45.15H106.57l.48-6.45A16,16,0,0,1,94,108.16a14,14,0,0,1-10.79-4.71A14.65,14.65,0,0,1,79.38,92l1.94-29a23.51,23.51,0,0,1,7.45-15.93,22.26,22.26,0,0,1,16-6.65,19.58,19.58,0,0,1,15.19,6.65A20.87,20.87,0,0,1,125.34,63Zm-15.77,0A5.82,5.82,0,0,0,108,58.43a5.68,5.68,0,0,0-4.35-1.87,6.36,6.36,0,0,0-4.5,1.87A6.72,6.72,0,0,0,97,63L95.54,85.58a5.81,5.81,0,0,0,1.55,4.58A5.58,5.58,0,0,0,101.34,92a6.47,6.47,0,0,0,4.6-1.87,6.75,6.75,0,0,0,2.18-4.58Z"/><path class="cls-2" d="M149.62,27.53l-5.22,80.63H128.63L134,27.53Z"/><path class="cls-2" d="M199.06,40.43l-4.45,67.73H178.84l.48-6.45a16,16,0,0,1-13.06,6.45,14,14,0,0,1-10.79-4.71A14.65,14.65,0,0,1,151.65,92L155,40.43h15.67l-2.9,45.15a5.81,5.81,0,0,0,1.55,4.58A5.58,5.58,0,0,0,173.61,92a6.47,6.47,0,0,0,4.6-1.87,6.75,6.75,0,0,0,2.18-4.58l2.9-45.15Z"/><path class="cls-2" d="M246.08,40.43,245,56.56H232.51l-3.36,51.6H213.38l3.38-51.6H204.19l1.06-16.13Z"/><path class="cls-2" d="M295,63H279.32a5.85,5.85,0,0,0-1.54-4.58,5.68,5.68,0,0,0-4.34-1.87q-6.27,0-6.46,3.22-.3,5,6.84,7.49,11.28,4,13.21,5.41,7,5,6.26,16.13-.48,8-7.3,13.67a24.25,24.25,0,0,1-16,5.68,19.45,19.45,0,0,1-15.1-6.65,20.83,20.83,0,0,1-5.41-15.93h15.71a5.81,5.81,0,0,0,1.55,4.58A5.53,5.53,0,0,0,271,92c4.17,0,6.36-1.07,6.55-3.22.2-3.36-2.09-5.85-6.84-7.48q-11.28-4-13.21-5.42-7-5-6.26-16.13.48-8,7.3-13.67a24.16,24.16,0,0,1,15.92-5.68,19.59,19.59,0,0,1,15.19,6.65A20.9,20.9,0,0,1,295,63Z"/><path class="cls-2" d="M345.34,63l-3,45.15H326.57l.49-6.45A16,16,0,0,1,314,108.16a14,14,0,0,1-10.79-4.71A14.62,14.62,0,0,1,299.39,92l1.93-29a23.55,23.55,0,0,1,7.45-15.93,22.27,22.27,0,0,1,16-6.65,19.59,19.59,0,0,1,15.19,6.65A20.9,20.9,0,0,1,345.34,63Zm-15.77,0A5.79,5.79,0,0,0,328,58.43a5.68,5.68,0,0,0-4.35-1.87,6.36,6.36,0,0,0-4.5,1.87A6.71,6.71,0,0,0,317,63l-1.46,22.57a5.81,5.81,0,0,0,1.55,4.58A5.58,5.58,0,0,0,321.35,92a6.47,6.47,0,0,0,4.59-1.87,6.7,6.7,0,0,0,2.18-4.58Z"/><path class="cls-2" d="M369.63,27.53l-5.23,80.63H348.63L354,27.53Z"/><path class="cls-2" d="M419.06,40.43l-4.45,67.73H398.84l.49-6.45a16,16,0,0,1-13.06,6.45,14,14,0,0,1-10.79-4.71A14.62,14.62,0,0,1,371.66,92L375,40.43h15.68l-2.91,45.15a5.81,5.81,0,0,0,1.55,4.58A5.58,5.58,0,0,0,393.62,92a6.47,6.47,0,0,0,4.59-1.87,6.7,6.7,0,0,0,2.18-4.58l2.9-45.15Z"/><path class="cls-2" d="M466.08,40.43,465,56.56h-12.5l-3.37,51.6H433.38l3.39-51.6H424.19l1.06-16.13Z"/><rect class="cls-2" x="29.3" y="126.06" width="437.15" height="9.93" rx="1.43"/><rect class="cls-2" x="29.25" y="113.07" width="437.24" height="9.93" rx="1.41"/></g></g></svg>